<mxfile host="app.diagrams.net" modified="2020-12-13T14:57:08.443Z" agent="5.0 (Windows NT 10.0; Win64; x64) AppleWebKit/537.36 (KHTML, like Gecko) Chrome/87.0.4280.88 Safari/537.36 Edg/87.0.664.60" etag="u-Ej8CpX7vpzty2o3Ma1" version="14.0.1" type="github">
  <diagram id="gM3WxqdrxTJoCj7wMOY4" name="Page-1">
    <mxGraphModel dx="820" dy="1629" grid="1" gridSize="10" guides="1" tooltips="1" connect="1" arrows="1" fold="1" page="1" pageScale="1" pageWidth="850" pageHeight="1100" math="0" shadow="0">
      <root>
        <mxCell id="0" />
        <mxCell id="1" parent="0" />
        <mxCell id="KWf4gQ6hkN5NAQR5kB0W-1" value="" style="shape=flexArrow;endArrow=classic;html=1;fillColor=#d5e8d4;strokeColor=#82b366;" edge="1" parent="1" target="KWf4gQ6hkN5NAQR5kB0W-2">
          <mxGeometry width="50" height="50" relative="1" as="geometry">
            <mxPoint x="40" y="160" as="sourcePoint" />
            <mxPoint x="190" y="150" as="targetPoint" />
          </mxGeometry>
        </mxCell>
        <mxCell id="KWf4gQ6hkN5NAQR5kB0W-5" value="Desired motor trajectory" style="edgeLabel;html=1;align=center;verticalAlign=middle;resizable=0;points=[];" vertex="1" connectable="0" parent="KWf4gQ6hkN5NAQR5kB0W-1">
          <mxGeometry x="-0.3797" y="2" relative="1" as="geometry">
            <mxPoint x="20.000000000000004" y="-27.17" as="offset" />
          </mxGeometry>
        </mxCell>
        <mxCell id="KWf4gQ6hkN5NAQR5kB0W-2" value="Inverse model" style="rounded=1;whiteSpace=wrap;html=1;fillColor=#d5e8d4;strokeColor=#82b366;" vertex="1" parent="1">
          <mxGeometry x="170" y="140" width="100" height="40" as="geometry" />
        </mxCell>
        <mxCell id="KWf4gQ6hkN5NAQR5kB0W-6" value="" style="shape=flexArrow;endArrow=classic;html=1;fillColor=#e1d5e7;strokeColor=#9673a6;" edge="1" parent="1">
          <mxGeometry width="50" height="50" relative="1" as="geometry">
            <mxPoint x="270" y="159.5" as="sourcePoint" />
            <mxPoint x="400" y="159.5" as="targetPoint" />
          </mxGeometry>
        </mxCell>
        <mxCell id="KWf4gQ6hkN5NAQR5kB0W-7" value="Motor Command" style="edgeLabel;html=1;align=center;verticalAlign=middle;resizable=0;points=[];" vertex="1" connectable="0" parent="KWf4gQ6hkN5NAQR5kB0W-6">
          <mxGeometry x="-0.3797" y="2" relative="1" as="geometry">
            <mxPoint x="20.000000000000004" y="-27.17" as="offset" />
          </mxGeometry>
        </mxCell>
        <mxCell id="KWf4gQ6hkN5NAQR5kB0W-8" value="Motor plant (Implementer)" style="rounded=1;whiteSpace=wrap;html=1;fillColor=#e1d5e7;strokeColor=#9673a6;" vertex="1" parent="1">
          <mxGeometry x="400" y="140" width="100" height="40" as="geometry" />
        </mxCell>
        <mxCell id="KWf4gQ6hkN5NAQR5kB0W-9" value="" style="shape=flexArrow;endArrow=classic;html=1;fillColor=#f8cecc;strokeColor=#b85450;" edge="1" parent="1">
          <mxGeometry width="50" height="50" relative="1" as="geometry">
            <mxPoint x="500" y="159.5" as="sourcePoint" />
            <mxPoint x="630" y="159.5" as="targetPoint" />
          </mxGeometry>
        </mxCell>
        <mxCell id="KWf4gQ6hkN5NAQR5kB0W-10" value="Actual motor trajectory" style="edgeLabel;html=1;align=center;verticalAlign=middle;resizable=0;points=[];" vertex="1" connectable="0" parent="KWf4gQ6hkN5NAQR5kB0W-9">
          <mxGeometry x="-0.3797" y="2" relative="1" as="geometry">
            <mxPoint x="20.000000000000004" y="-27.17" as="offset" />
          </mxGeometry>
        </mxCell>
        <mxCell id="KWf4gQ6hkN5NAQR5kB0W-11" value="Sensory system" style="ellipse;whiteSpace=wrap;html=1;aspect=fixed;fillColor=#e1d5e7;strokeColor=#9673a6;" vertex="1" parent="1">
          <mxGeometry x="630" y="120" width="80" height="80" as="geometry" />
        </mxCell>
        <mxCell id="KWf4gQ6hkN5NAQR5kB0W-12" value="" style="shape=flexArrow;endArrow=classic;html=1;fillColor=#d5e8d4;strokeColor=#82b366;" edge="1" parent="1">
          <mxGeometry width="50" height="50" relative="1" as="geometry">
            <mxPoint x="449.5" y="140" as="sourcePoint" />
            <mxPoint x="450" y="40" as="targetPoint" />
          </mxGeometry>
        </mxCell>
        <mxCell id="KWf4gQ6hkN5NAQR5kB0W-13" value="Efference Copy" style="edgeLabel;html=1;align=center;verticalAlign=middle;resizable=0;points=[];" vertex="1" connectable="0" parent="KWf4gQ6hkN5NAQR5kB0W-12">
          <mxGeometry x="-0.3797" y="2" relative="1" as="geometry">
            <mxPoint x="52.34" y="-18.560000000000002" as="offset" />
          </mxGeometry>
        </mxCell>
        <mxCell id="KWf4gQ6hkN5NAQR5kB0W-14" value="Forward model" style="rounded=1;whiteSpace=wrap;html=1;fillColor=#d5e8d4;strokeColor=#82b366;" vertex="1" parent="1">
          <mxGeometry x="400" width="100" height="40" as="geometry" />
        </mxCell>
        <mxCell id="KWf4gQ6hkN5NAQR5kB0W-15" value="" style="shape=flexArrow;endArrow=classic;html=1;fillColor=#d5e8d4;strokeColor=#82b366;" edge="1" parent="1">
          <mxGeometry width="50" height="50" relative="1" as="geometry">
            <mxPoint x="500" y="19.409999999999997" as="sourcePoint" />
            <mxPoint x="630" y="19.409999999999997" as="targetPoint" />
          </mxGeometry>
        </mxCell>
        <mxCell id="KWf4gQ6hkN5NAQR5kB0W-16" value="Estimated sensory feedback" style="edgeLabel;html=1;align=center;verticalAlign=middle;resizable=0;points=[];" vertex="1" connectable="0" parent="KWf4gQ6hkN5NAQR5kB0W-15">
          <mxGeometry x="-0.3797" y="2" relative="1" as="geometry">
            <mxPoint x="10.000000000000004" y="-24.410000000000004" as="offset" />
          </mxGeometry>
        </mxCell>
        <mxCell id="KWf4gQ6hkN5NAQR5kB0W-32" value="" style="html=1;shadow=0;dashed=0;align=center;verticalAlign=middle;shape=mxgraph.arrows2.uTurnArrow;dy=11;arrowHead=43;dx2=34.8;rotation=-90;perimeterSpacing=0;flipH=1;fillColor=#f8cecc;strokeColor=#b85450;" vertex="1" parent="1">
          <mxGeometry x="313" y="-249" width="248" height="484" as="geometry" />
        </mxCell>
        <mxCell id="KWf4gQ6hkN5NAQR5kB0W-34" value="&lt;b&gt;&lt;font style=&quot;font-size: 33px&quot;&gt;The auxiliary forward model&lt;/font&gt;&lt;/b&gt;" style="text;html=1;align=center;verticalAlign=middle;resizable=0;points=[];autosize=1;" vertex="1" parent="1">
          <mxGeometry x="212" y="-175" width="450" height="30" as="geometry" />
        </mxCell>
      </root>
    </mxGraphModel>
  </diagram>
</mxfile>
